<?xml version="1.0" encoding="UTF-8"?>
<!DOCTYPE svg PUBLIC "-//W3C//DTD SVG 1.1//EN" "http://www.w3.org/Graphics/SVG/1.1/DTD/svg11.dtd">
<svg width="160mm" height="199mm" viewBox="0 0 16000 19900" version="1.1" xmlns="http://www.w3.org/2000/svg" stroke-width="28.222" stroke-linejoin="round" xml:space="preserve">
 <path fill="rgb(255,255,255)" stroke="none" d="M 8000,19935 L 0,19935 0,0 15999,0 15999,19935 8000,19935 Z"/>
 <path fill="none" stroke="rgb(179,179,179)" stroke-linejoin="round" d="M 8620,18313 L 1614,18313 1614,4907 15627,4907 15627,18313 8620,18313 Z"/>
 <path fill="none" stroke="rgb(179,179,179)" stroke-width="20" stroke-linejoin="round" d="M 1614,4906 L 1614,18312"/>
 <path fill="none" stroke="rgb(179,179,179)" stroke-width="20" stroke-linejoin="round" d="M 3171,4906 L 3171,18312"/>
 <path fill="none" stroke="rgb(179,179,179)" stroke-width="20" stroke-linejoin="round" d="M 4728,4906 L 4728,18312"/>
 <path fill="none" stroke="rgb(179,179,179)" stroke-width="20" stroke-linejoin="round" d="M 6285,4906 L 6285,18312"/>
 <path fill="none" stroke="rgb(179,179,179)" stroke-width="20" stroke-linejoin="round" d="M 7842,4906 L 7842,18312"/>
 <path fill="none" stroke="rgb(179,179,179)" stroke-width="20" stroke-linejoin="round" d="M 9398,4906 L 9398,18312"/>
 <path fill="none" stroke="rgb(179,179,179)" stroke-width="20" stroke-linejoin="round" d="M 10955,4906 L 10955,18312"/>
 <path fill="none" stroke="rgb(179,179,179)" stroke-width="20" stroke-linejoin="round" d="M 12512,4906 L 12512,18312"/>
 <path fill="none" stroke="rgb(179,179,179)" stroke-width="20" stroke-linejoin="round" d="M 14069,4906 L 14069,18312"/>
 <path fill="none" stroke="rgb(179,179,179)" stroke-width="20" stroke-linejoin="round" d="M 15627,4906 L 15627,18312"/>
 <path fill="none" stroke="rgb(179,179,179)" stroke-width="20" stroke-linejoin="round" d="M 15627,18312 L 1614,18312"/>
 <path fill="none" stroke="rgb(179,179,179)" stroke-width="20" stroke-linejoin="round" d="M 15627,14960 L 1614,14960"/>
 <path fill="none" stroke="rgb(179,179,179)" stroke-width="20" stroke-linejoin="round" d="M 15627,11608 L 1614,11608"/>
 <path fill="none" stroke="rgb(179,179,179)" stroke-width="20" stroke-linejoin="round" d="M 15627,8257 L 1614,8257"/>
 <path fill="none" stroke="rgb(179,179,179)" stroke-width="20" stroke-linejoin="round" d="M 15627,4906 L 1614,4906"/>
 <path fill="none" stroke="rgb(179,179,179)" stroke-width="20" stroke-linejoin="round" d="M 1614,18462 L 1614,18312"/>
 <path fill="none" stroke="rgb(179,179,179)" stroke-width="20" stroke-linejoin="round" d="M 1614,18462 L 1614,18312"/>
 <path fill="none" stroke="rgb(179,179,179)" stroke-width="20" stroke-linejoin="round" d="M 3171,18462 L 3171,18312"/>
 <path fill="none" stroke="rgb(179,179,179)" stroke-width="20" stroke-linejoin="round" d="M 3171,18462 L 3171,18312"/>
 <path fill="none" stroke="rgb(179,179,179)" stroke-width="20" stroke-linejoin="round" d="M 4728,18462 L 4728,18312"/>
 <path fill="none" stroke="rgb(179,179,179)" stroke-width="20" stroke-linejoin="round" d="M 4728,18462 L 4728,18312"/>
 <path fill="none" stroke="rgb(179,179,179)" stroke-width="20" stroke-linejoin="round" d="M 6285,18462 L 6285,18312"/>
 <path fill="none" stroke="rgb(179,179,179)" stroke-width="20" stroke-linejoin="round" d="M 6285,18462 L 6285,18312"/>
 <path fill="none" stroke="rgb(179,179,179)" stroke-width="20" stroke-linejoin="round" d="M 7842,18462 L 7842,18312"/>
 <path fill="none" stroke="rgb(179,179,179)" stroke-width="20" stroke-linejoin="round" d="M 7842,18462 L 7842,18312"/>
 <path fill="none" stroke="rgb(179,179,179)" stroke-width="20" stroke-linejoin="round" d="M 9398,18462 L 9398,18312"/>
 <path fill="none" stroke="rgb(179,179,179)" stroke-width="20" stroke-linejoin="round" d="M 9398,18462 L 9398,18312"/>
 <path fill="none" stroke="rgb(179,179,179)" stroke-width="20" stroke-linejoin="round" d="M 10955,18462 L 10955,18312"/>
 <path fill="none" stroke="rgb(179,179,179)" stroke-width="20" stroke-linejoin="round" d="M 10955,18462 L 10955,18312"/>
 <path fill="none" stroke="rgb(179,179,179)" stroke-width="20" stroke-linejoin="round" d="M 12512,18462 L 12512,18312"/>
 <path fill="none" stroke="rgb(179,179,179)" stroke-width="20" stroke-linejoin="round" d="M 12512,18462 L 12512,18312"/>
 <path fill="none" stroke="rgb(179,179,179)" stroke-width="20" stroke-linejoin="round" d="M 14069,18462 L 14069,18312"/>
 <path fill="none" stroke="rgb(179,179,179)" stroke-width="20" stroke-linejoin="round" d="M 14069,18462 L 14069,18312"/>
 <path fill="none" stroke="rgb(179,179,179)" stroke-width="20" stroke-linejoin="round" d="M 15627,18462 L 15627,18312"/>
 <path fill="none" stroke="rgb(179,179,179)" stroke-width="20" stroke-linejoin="round" d="M 15627,18462 L 15627,18312"/>
 <path fill="none" stroke="rgb(179,179,179)" stroke-width="20" stroke-linejoin="round" d="M 1614,18312 L 15627,18312"/>
 <path fill="none" stroke="rgb(179,179,179)" stroke-width="20" stroke-linejoin="round" d="M 1464,18312 L 1614,18312"/>
 <path fill="none" stroke="rgb(179,179,179)" stroke-width="20" stroke-linejoin="round" d="M 1464,18312 L 1614,18312"/>
 <path fill="none" stroke="rgb(179,179,179)" stroke-width="20" stroke-linejoin="round" d="M 1464,14960 L 1614,14960"/>
 <path fill="none" stroke="rgb(179,179,179)" stroke-width="20" stroke-linejoin="round" d="M 1464,14960 L 1614,14960"/>
 <path fill="none" stroke="rgb(179,179,179)" stroke-width="20" stroke-linejoin="round" d="M 1464,11608 L 1614,11608"/>
 <path fill="none" stroke="rgb(179,179,179)" stroke-width="20" stroke-linejoin="round" d="M 1464,11608 L 1614,11608"/>
 <path fill="none" stroke="rgb(179,179,179)" stroke-width="20" stroke-linejoin="round" d="M 1464,8257 L 1614,8257"/>
 <path fill="none" stroke="rgb(179,179,179)" stroke-width="20" stroke-linejoin="round" d="M 1464,8257 L 1614,8257"/>
 <path fill="none" stroke="rgb(179,179,179)" stroke-width="20" stroke-linejoin="round" d="M 1464,4905 L 1614,4905"/>
 <path fill="none" stroke="rgb(179,179,179)" stroke-width="20" stroke-linejoin="round" d="M 1464,4905 L 1614,4905"/>
 <path fill="none" stroke="rgb(179,179,179)" stroke-width="20" stroke-linejoin="round" d="M 1614,18312 L 1614,4906"/>
 <path fill="none" stroke="rgb(0,0,0)" stroke-width="70" stroke-linejoin="round" stroke-dasharray="51,51,51,51" d="M 8402,18312 L 8406,18020 8420,17732 8443,17450 8474,17178 8515,16918 8564,16673 8623,16444 8691,16233 8768,16041 8853,15869 8948,15718 9052,15586 9165,15475 9287,15384 9418,15313 9558,15261 9707,15227 9865,15212 10032,15214 10208,15233 10393,15267 10587,15318 10791,15383 11003,15463 11224,15556 11454,15663 11694,15783 11942,15915 12199,16059 12466,16215 12741,16382 13026,16559 13319,16747 13622,16944 13933,17151 14254,17367 14583,17592 14922,17824 15270,18064 15627,18312"/>
 <path fill="none" stroke="rgb(0,0,0)" stroke-width="70" stroke-linejoin="round" stroke-dasharray="138,84" d="M 8123,18312 L 8128,17985 8142,17663 8165,17348 8198,17046 8240,16758 8292,16487 8353,16236 8423,16007 8503,15799 8592,15615 8690,15453 8798,15315 8915,15199 9042,15106 9178,15034 9323,14984 9478,14953 9642,14942 9816,14949 9999,14975 10191,15017 10393,15076 10604,15150 10824,15240 11054,15344 11293,15462 11542,15593 11800,15738 12067,15894 12344,16063 12630,16243 12925,16434 13230,16636 13544,16848 13868,17070 14201,17302 14543,17542 14895,17791 15256,18047 15627,18312"/>
 <path fill="none" stroke="rgb(0,0,0)" stroke-width="70" stroke-linejoin="round" d="M 7870,18312 L 7874,17950 7889,17593 7913,17246 7947,16912 7991,16597 8043,16302 8106,16030 8179,15783 8261,15561 8353,15365 8455,15195 8567,15051 8688,14933 8819,14838 8960,14767 9110,14719 9270,14692 9440,14686 9619,14699 9808,14731 10007,14781 10215,14848 10434,14932 10661,15031 10899,15145 11146,15274 11403,15416 11670,15572 11946,15740 12232,15921 12528,16114 12834,16318 13149,16533 13474,16759 13808,16995 14153,17241 14506,17496 14870,17759 15243,18032 15627,18312"/>
 <path fill="none" stroke="rgb(0,0,255)" stroke-width="50" stroke-linejoin="round" stroke-dasharray="51,51,51,51" d="M 1614,18312 L 7000,18312 8402,18312 8406,18046 8420,17781 8443,17515 8474,17249 8515,16981 8564,16712 8623,16441 8691,16168 8768,15893 8853,15616 8948,15336 9052,15053 9165,14767 9287,14477 9418,14183 9558,13886 9707,13584 9865,13278 10032,12968 10208,12652 10393,12331 10587,12004 10791,11672 11003,11334 11224,10990 11454,10640 11694,10283 11942,9920 12199,9548 12466,9170 12741,8783 13026,8389 13319,7986 13622,7575 13933,7155 14254,6726 14583,6286 14922,5837 15270,5377 15627,4906"/>
 <path fill="none" stroke="rgb(0,0,255)" stroke-width="50" stroke-linejoin="round" stroke-dasharray="99,60" d="M 1614,18312 L 6859,18312 8123,18312 8128,18050 8142,17788 8165,17525 8198,17261 8240,16997 8292,16731 8353,16463 8423,16193 8503,15921 8592,15646 8690,15368 8798,15087 8915,14803 9042,14515 9178,14223 9323,13927 9478,13627 9642,13322 9816,13012 9999,12696 10191,12376 10393,12049 10604,11717 10824,11378 11054,11033 11293,10681 11542,10323 11800,9958 12067,9585 12344,9204 12630,8815 12925,8418 13230,8013 13544,7598 13868,7175 14201,6742 14543,6299 14895,5845 15256,5381 15627,4906"/>
 <path fill="none" stroke="rgb(0,0,255)" stroke-width="50" stroke-linejoin="round" d="M 1614,18312 L 6725,18312 7870,18312 7874,18053 7889,17794 7913,17534 7947,17274 7991,17012 8043,16749 8106,16484 8179,16217 8261,15947 8353,15675 8455,15399 8567,15121 8688,14838 8819,14552 8960,14262 9110,13967 9270,13668 9440,13364 9619,13054 9808,12739 10007,12419 10215,12092 10434,11759 10661,11420 10899,11074 11146,10721 11403,10361 11670,9994 11946,9620 12232,9237 12528,8846 12834,8446 13149,8038 13474,7621 13808,7194 14153,6757 14506,6311 14870,5853 15243,5385 15627,4906"/>
 <path fill="none" stroke="rgb(204,0,0)" stroke-width="50" stroke-linejoin="round" stroke-dasharray="51,51,51,51" d="M 1614,4906 L 7000,4906 7000,18312 8402,18312 8406,17755 8420,17201 8443,16654 8474,16115 8515,15587 8564,15073 8623,14573 8691,14089 8768,13623 8853,13174 8948,12742 9052,12328 9165,11930 9287,11550 9418,11185 9558,10836 9707,10500 9865,10179 10032,9871 10208,9574 10393,9288 10587,9012 10791,8745 11003,8487 11224,8236 11454,7993 11694,7755 11942,7523 12199,7296 12466,7073 12741,6854 13026,6637 13319,6422 13622,6208 13933,5995 14254,5781 14583,5567 14922,5350 15270,5130 15627,4906"/>
 <path fill="none" stroke="rgb(204,0,0)" stroke-width="50" stroke-linejoin="round" stroke-dasharray="99,60" d="M 1614,4906 L 6859,4906 6859,18312 8123,18312 8128,17723 8142,17139 8165,16562 8198,15995 8240,15443 8292,14906 8353,14387 8423,13888 8503,13408 8592,12949 8690,12510 8798,12091 8915,11691 9042,11310 9178,10946 9323,10600 9478,10269 9642,9953 9816,9651 9999,9361 10191,9082 10393,8814 10604,8557 10824,8308 11054,8067 11293,7833 11542,7606 11800,7384 12067,7168 12344,6955 12630,6747 12925,6541 13230,6337 13544,6135 13868,5934 14201,5732 14543,5529 14895,5325 15256,5117 15627,4906"/>
 <path fill="none" stroke="rgb(204,0,0)" stroke-width="50" stroke-linejoin="round" d="M 1614,4906 L 6725,4906 6725,18312 7870,18312 7874,17691 7889,17075 7913,16468 7947,15875 7991,15297 8043,14739 8106,14202 8179,13688 8261,13196 8353,12728 8455,12283 8567,11860 8688,11459 8819,11079 8960,10717 9110,10374 9270,10048 9440,9739 9619,9442 9808,9160 10007,8889 10215,8630 10434,8381 10661,8141 10899,7909 11146,7685 11403,7467 11670,7256 11946,7049 12232,6847 12528,6648 12834,6453 13149,6260 13474,6068 13808,5877 14153,5686 14506,5495 14870,5301 15243,5105 15627,4906"/>
 <text class="TextShape"><tspan class="TextParagraph" font-family="TeX Gyre Heros" font-size="423px" font-weight="400"><tspan class="TextPosition" x="1495" y="19065"><tspan fill="rgb(0,0,0)" stroke="none">0</tspan></tspan></tspan></text>
 <text class="TextShape"><tspan class="TextParagraph" font-family="TeX Gyre Heros" font-size="423px" font-weight="400"><tspan class="TextPosition" x="2933" y="19065"><tspan fill="rgb(0,0,0)" stroke="none">10</tspan></tspan></tspan></text>
 <text class="TextShape"><tspan class="TextParagraph" font-family="TeX Gyre Heros" font-size="423px" font-weight="400"><tspan class="TextPosition" x="4490" y="19065"><tspan fill="rgb(0,0,0)" stroke="none">20</tspan></tspan></tspan></text>
 <text class="TextShape"><tspan class="TextParagraph" font-family="TeX Gyre Heros" font-size="423px" font-weight="400"><tspan class="TextPosition" x="6047" y="19065"><tspan fill="rgb(0,0,0)" stroke="none">30</tspan></tspan></tspan></text>
 <text class="TextShape"><tspan class="TextParagraph" font-family="TeX Gyre Heros" font-size="423px" font-weight="400"><tspan class="TextPosition" x="7604" y="19065"><tspan fill="rgb(0,0,0)" stroke="none">40</tspan></tspan></tspan></text>
 <text class="TextShape"><tspan class="TextParagraph" font-family="TeX Gyre Heros" font-size="423px" font-weight="400"><tspan class="TextPosition" x="9161" y="19065"><tspan fill="rgb(0,0,0)" stroke="none">50</tspan></tspan></tspan></text>
 <text class="TextShape"><tspan class="TextParagraph" font-family="TeX Gyre Heros" font-size="423px" font-weight="400"><tspan class="TextPosition" x="10718" y="19065"><tspan fill="rgb(0,0,0)" stroke="none">60</tspan></tspan></tspan></text>
 <text class="TextShape"><tspan class="TextParagraph" font-family="TeX Gyre Heros" font-size="423px" font-weight="400"><tspan class="TextPosition" x="12275" y="19065"><tspan fill="rgb(0,0,0)" stroke="none">70</tspan></tspan></tspan></text>
 <text class="TextShape"><tspan class="TextParagraph" font-family="TeX Gyre Heros" font-size="423px" font-weight="400"><tspan class="TextPosition" x="13832" y="19065"><tspan fill="rgb(0,0,0)" stroke="none">80</tspan></tspan></tspan></text>
 <text class="TextShape"><tspan class="TextParagraph" font-family="TeX Gyre Heros" font-size="423px" font-weight="400"><tspan class="TextPosition" x="15390" y="19065"><tspan fill="rgb(0,0,0)" stroke="none">90</tspan></tspan></tspan></text>
 <text class="TextShape"><tspan class="TextParagraph" font-family="TeX Gyre Heros" font-size="423px" font-weight="400"><tspan class="TextPosition" x="1126" y="18499"><tspan fill="rgb(0,0,0)" stroke="none">0</tspan></tspan></tspan></text>
 <text class="TextShape"><tspan class="TextParagraph" font-family="TeX Gyre Heros" font-size="423px" font-weight="400"><tspan class="TextPosition" x="888" y="15147"><tspan fill="rgb(0,0,0)" stroke="none">45</tspan></tspan></tspan></text>
 <text class="TextShape"><tspan class="TextParagraph" font-family="TeX Gyre Heros" font-size="423px" font-weight="400"><tspan class="TextPosition" x="888" y="11795"><tspan fill="rgb(0,0,0)" stroke="none">90</tspan></tspan></tspan></text>
 <text class="TextShape"><tspan class="TextParagraph" font-family="TeX Gyre Heros" font-size="423px" font-weight="400"><tspan class="TextPosition" x="650" y="8443"><tspan fill="rgb(0,0,0)" stroke="none">135</tspan></tspan></tspan></text>
 <text class="TextShape"><tspan class="TextParagraph" font-family="TeX Gyre Heros" font-size="423px" font-weight="400"><tspan class="TextPosition" x="650" y="5091"><tspan fill="rgb(0,0,0)" stroke="none">180</tspan></tspan></tspan></text>
 <text class="TextShape"><tspan class="TextParagraph" font-family="Georgia" font-size="706px" font-weight="700" text-anchor="middle"><tspan class="TextPosition" x="8000" y="899"><tspan fill="rgb(0,0,0)" stroke="none">Phase advance at internal reflection</tspan></tspan></tspan></text>
 <text class="TextShape"><tspan class="TextParagraph" font-family="DejaVu Sans" font-size="459px" font-weight="400"><tspan class="TextPosition" x="8000" y="1736" text-anchor="middle"><tspan fill="rgb(0,0,0)" stroke="none"><tspan font-style="italic">p</tspan> component (<tspan font-style="italic">δ<tspan font-size="0.7em" dy="0.5ex">p</tspan><tspan dy="-0.35ex">&#8203;</tspan></tspan>, red); <tspan font-style="italic">s</tspan> component (<tspan font-style="italic">δ<tspan font-size="0.7em" dy="0.5ex">s</tspan><tspan dy="-0.35ex">&#8203;</tspan></tspan>, blue);</tspan></tspan></tspan><tspan class="TextParagraph" font-family="DejaVu Sans" font-size="459px" font-weight="400"><tspan class="TextPosition" x="8000" y="2265" text-anchor="middle"><tspan fill="rgb(0,0,0)" stroke="none"><tspan font-style="italic">p</tspan> relative to <tspan font-style="italic">s</tspan> for total reflection (<tspan font-style="italic">δ</tspan>, black).</tspan></tspan></tspan></text>
 <path fill="none" stroke="rgb(204,0,0)" stroke-width="50" stroke-linejoin="round" d="M 1065,2921 L 2665,2921"/>
 <path fill="none" stroke="rgb(204,0,0)" stroke-width="50" stroke-linejoin="round" stroke-dasharray="99,60" d="M 5931,2921 L 7531,2921"/>
 <path fill="none" stroke="rgb(204,0,0)" stroke-width="50" stroke-linejoin="round" stroke-dasharray="51,51,51,51" d="M 10532,2921 L 12132,2921"/>
 <path fill="none" stroke="rgb(0,0,255)" stroke-width="50" stroke-linejoin="round" d="M 1065,3495 L 2665,3495"/>
 <path fill="none" stroke="rgb(0,0,255)" stroke-width="50" stroke-linejoin="round" stroke-dasharray="99,60" d="M 5931,3495 L 7531,3495"/>
 <path fill="none" stroke="rgb(0,0,255)" stroke-width="50" stroke-linejoin="round" stroke-dasharray="51,51,51,51" d="M 10532,3495 L 12132,3495"/>
 <path fill="none" stroke="rgb(0,0,0)" stroke-width="70" stroke-linejoin="round" d="M 1065,4069 L 2665,4069"/>
 <path fill="none" stroke="rgb(0,0,0)" stroke-width="70" stroke-linejoin="round" stroke-dasharray="138,84" d="M 5931,4069 L 7531,4069"/>
 <path fill="none" stroke="rgb(0,0,0)" stroke-width="70" stroke-linejoin="round" stroke-dasharray="51,51,51,51" d="M 10532,4069 L 12132,4069"/>
 <text class="TextShape"><tspan class="TextParagraph" font-family="DejaVu Sans" font-size="423px" font-weight="400"><tspan class="TextPosition" x="2765" y="3067"><tspan fill="rgb(0,0,0)" stroke="none"><tspan font-style="italic">δ<tspan font-size="0.7em" dy="0.5ex">p</tspan><tspan dy="-0.35ex">&#8203;</tspan></tspan> (<tspan font-style="italic">n</tspan> = 1.55)</tspan></tspan></tspan></text>
 <text class="TextShape"><tspan class="TextParagraph" font-family="DejaVu Sans" font-size="423px" font-weight="400"><tspan class="TextPosition" x="7631" y="3067"><tspan fill="rgb(0,0,0)" stroke="none"><tspan font-style="italic">δ<tspan font-size="0.7em" dy="0.5ex">p</tspan><tspan dy="-0.35ex">&#8203;</tspan></tspan> (<tspan font-style="italic">n</tspan> = 1.5)</tspan></tspan></tspan></text>
 <text class="TextShape"><tspan class="TextParagraph" font-family="DejaVu Sans" font-size="423px" font-weight="400"><tspan class="TextPosition" x="12232" y="3067"><tspan fill="rgb(0,0,0)" stroke="none"><tspan font-style="italic">δ<tspan font-size="0.7em" dy="0.5ex">p</tspan><tspan dy="-0.35ex">&#8203;</tspan></tspan> (<tspan font-style="italic">n</tspan> = 1.45)</tspan></tspan></tspan></text>
 <text class="TextShape"><tspan class="TextParagraph" font-family="DejaVu Sans" font-size="423px" font-weight="400"><tspan class="TextPosition" x="2765" y="3641"><tspan fill="rgb(0,0,0)" stroke="none"><tspan font-style="italic">δ<tspan font-size="0.7em" dy="0.5ex">s</tspan><tspan dy="-0.35ex">&#8203;</tspan></tspan> (<tspan font-style="italic">n</tspan> = 1.55)</tspan></tspan></tspan></text>
 <text class="TextShape"><tspan class="TextParagraph" font-family="DejaVu Sans" font-size="423px" font-weight="400"><tspan class="TextPosition" x="7631" y="3641"><tspan fill="rgb(0,0,0)" stroke="none"><tspan font-style="italic">δ<tspan font-size="0.7em" dy="0.5ex">s</tspan><tspan dy="-0.35ex">&#8203;</tspan></tspan> (<tspan font-style="italic">n</tspan> = 1.5)</tspan></tspan></tspan></text>
 <text class="TextShape"><tspan class="TextParagraph" font-family="DejaVu Sans" font-size="423px" font-weight="400"><tspan class="TextPosition" x="12232" y="3641"><tspan fill="rgb(0,0,0)" stroke="none"><tspan font-style="italic">δ<tspan font-size="0.7em" dy="0.5ex">s</tspan><tspan dy="-0.35ex">&#8203;</tspan></tspan> (<tspan font-style="italic">n</tspan> = 1.45)</tspan></tspan></tspan></text>
 <text class="TextShape"><tspan class="TextParagraph" font-family="DejaVu Sans" font-size="423px" font-weight="400"><tspan class="TextPosition" x="2765" y="4215"><tspan fill="rgb(0,0,0)" stroke="none"><tspan font-style="italic">δ</tspan> (<tspan font-style="italic">n</tspan> = 1.55)</tspan></tspan></tspan></text>
 <text class="TextShape"><tspan class="TextParagraph" font-family="DejaVu Sans" font-size="423px" font-weight="400"><tspan class="TextPosition" x="7631" y="4215"><tspan fill="rgb(0,0,0)" stroke="none"><tspan font-style="italic">δ</tspan> (<tspan font-style="italic">n</tspan> = 1.5)</tspan></tspan></tspan></text>
 <text class="TextShape"><tspan class="TextParagraph" font-family="DejaVu Sans" font-size="423px" font-weight="400"><tspan class="TextPosition" x="12232" y="4215"><tspan fill="rgb(0,0,0)" stroke="none"><tspan font-style="italic">δ</tspan> (<tspan font-style="italic">n</tspan> = 1.45)</tspan></tspan></tspan></text>
 <text class="TextShape"><tspan class="TextParagraph" font-family="DejaVu Sans" font-size="388px" font-weight="400"><tspan class="TextPosition" x="5820" y="19712"><tspan fill="rgb(0,0,0)" stroke="none">Angle of incidence (degrees)</tspan></tspan></tspan></text>
 <text class="TextShape" transform="translate(486,14064) rotate(-89.9) translate(-486,-14064)"><tspan class="TextParagraph" font-family="DejaVu Sans" font-size="388px" font-weight="400"><tspan class="TextPosition" x="486" y="14064"><tspan fill="rgb(0,0,0)" stroke="none">Phase advance (degrees)</tspan></tspan></tspan></text>
</svg>
